/vscmnt/brussel_pixiu_data/_data_brussel/112/vsc11236/PredSimResults/SUBJ06mtu3D/worker4.mot
version=1
nRows=7
nColumns=50
inDegrees=yes
endheader
                time	         pelvis_tilt	         pelvis_list	     pelvis_rotation	           pelvis_tx	           pelvis_ty	           pelvis_tz	       hip_flexion_r	     hip_adduction_r	      hip_rotation_r	        knee_angle_r	       ankle_angle_r	         mtp_angle_r	       hip_flexion_l	     hip_adduction_l	      hip_rotation_l	        knee_angle_l	       ankle_angle_l	         mtp_angle_l	    lumbar_extension	      lumbar_bending	     lumbar_rotation	 ercspn_r/activation	 intobl_r/activation	 extobl_r/activation	    abd_r/activation	    add_r/activation	hamstrings_r/activation	bifemsh_r/activation	glut_max_r/activation	iliopsoas_r/activation	rect_fem_r/activation	  vasti_r/activation	gastroc_r/activation	 soleus_r/activation	tib_ant_r/activation	 ercspn_l/activation	 intobl_l/activation	 extobl_l/activation	    abd_l/activation	    add_l/activation	hamstrings_l/activation	bifemsh_l/activation	glut_max_l/activation	iliopsoas_l/activation	rect_fem_l/activation	  vasti_l/activation	gastroc_l/activation	 soleus_l/activation	tib_ant_l/activation	
          1.24197361	         -7.20985289	         -1.15069468	          4.20616310	          1.39101044	          0.93065938	         -0.00951825	         30.81420461	          0.02916181	         -2.96376009	         -2.87323644	          0.37196565	          0.23248746	        -10.17638836	         -0.05844469	         -0.26463810	         -8.52667359	          7.67080720	         33.03910748	         -5.11330967	         -0.77299585	         -0.23775174	          0.17196151	          0.16960380	          0.00999999	          0.00999999	          0.11986623	          0.21767556	          0.30369775	          0.02396865	          0.23872803	          0.00999999	          0.00999999	          0.02630118	          0.00999999	          0.42470823	          0.07860078	          0.00999999	          0.00999999	          0.07241643	          0.00999999	          0.01165033	          0.16691799	          0.05107837	          0.47122629	          0.01456845	          0.00999999	          0.42080929	          0.33157448	          0.02122376	
          1.25439334	         -7.30731427	         -1.07464038	          4.28095023	          1.40752747	          0.92860325	         -0.00889953	         31.10204325	          0.09684460	         -2.73750254	         -4.83753769	         -0.04730653	          0.22495481	        -10.57772994	         -0.07787705	         -0.64552526	         -9.41953332	          6.87204007	         34.85999005	         -4.81362331	         -0.53243884	         -0.57305476	          0.14247070	          0.14051733	          0.00999999	          0.00999999	          0.16393585	          0.20256187	          0.25161463	          0.04672066	          0.19778699	          0.00999999	          0.00999999	          0.02291924	          0.01456841	          0.42736936	          0.10520567	          0.00999999	          0.00999999	          0.05999726	          0.01000001	          0.01398136	          0.13829213	          0.04525242	          0.48127020	          0.01207001	          0.01379318	          0.39555975	          0.31553846	          0.01758396	
          1.26681308	         -7.38863452	         -1.02084060	          4.32411297	          1.42440856	          0.92681852	         -0.00819389	         31.21621371	          0.15662914	         -2.47812978	         -6.73185315	         -0.44809027	          0.20425157	        -10.81979453	         -0.13255890	         -1.04441742	        -10.64505667	          5.93699882	         36.74734253	         -4.49741620	         -0.25795045	         -0.90181966	          0.12300230	          0.11641909	          0.00999999	          0.03463352	          0.13582142	          0.18633907	          0.20846358	          0.08200615	          0.16386720	          0.00999999	          0.00999999	          0.01898867	          0.01206998	          0.52779235	          0.09629130	          0.00999999	          0.00999999	          0.04970794	          0.00999999	          0.01690361	          0.11457551	          0.03749179	          0.48675440	          0.01000005	          0.02122376	          0.36405751	          0.29234163	          0.01456837	
          1.27923282	         -7.45446691	         -0.97370448	          4.33222189	          1.44142398	          0.92544245	         -0.00736152	         31.20091634	          0.22939695	         -2.30458503	         -8.38631884	         -1.03590968	          0.18023164	        -10.82363141	         -0.21014985	         -1.46176377	        -12.30943946	          4.83021956	         38.68850547	         -4.19622760	          0.02529617	         -1.21597570	          0.13743872	          0.09645362	          0.00999999	          0.08925362	          0.19542331	          0.16719484	          0.17271279	          0.11698838	          0.13576454	          0.00999999	          0.00999999	          0.01573218	          0.01000002	          0.59494814	          0.11573325	          0.00999999	          0.00999999	          0.04118320	          0.03754532	          0.04003026	          0.09492620	          0.03106208	          0.48168243	          0.01000001	          0.01758396	          0.31909707	          0.26737507	          0.01206995	
          1.29165255	         -7.50243231	         -0.93192535	          4.31109159	          1.45840111	          0.92457726	         -0.00642237	         31.11589492	          0.31660745	         -2.18743134	         -9.97547861	         -1.43774395	          0.14205991	        -10.51313758	         -0.31404481	         -1.90201757	        -14.52643682	          3.53392905	         40.61775885	         -3.92877396	          0.31595667	         -1.51296185	          0.15324385	          0.07991215	          0.00999999	          0.14936059	          0.25040024	          0.15191544	          0.14309314	          0.18298143	          0.11248139	          0.00999999	          0.00999999	          0.01303416	          0.00999999	          0.62040620	          0.15707234	          0.00999999	          0.00999999	          0.03412042	          0.11335047	          0.03316527	          0.07864668	          0.02573504	          0.45961750	          0.01000001	          0.01456837	          0.26437302	          0.22196328	          0.00999999	
          1.30407229	         -7.53134098	         -0.89723703	          4.26365503	          1.47517028	          0.92434229	         -0.00540443	         31.00655685	          0.41805408	         -2.09998040	        -11.61107618	         -1.41792109	          0.10244613	         -9.83219534	         -0.45148413	         -2.37810149	        -17.36460404	          2.03192771	         42.34934201	         -3.70699680	          0.61602059	         -1.78927985	          0.16103151	          0.06620749	          0.00999999	          0.19422535	          0.28463010	          0.13234055	          0.11855316	          0.22990208	          0.09319121	          0.00999999	          0.00999999	          0.01079885	          0.00999999	          0.60050321	          0.19620719	          0.00999999	          0.00999999	          0.02826888	          0.16385718	          0.04441363	          0.06515905	          0.02132157	          0.41970308	          0.00999999	          0.01206995	          0.21903396	          0.18389734	          0.00999999	
          1.31649202	         -7.54096605	         -0.87068182	          4.19392382	          1.49159871	          0.92479425	         -0.00433184	         30.90504264	          0.53550087	         -2.01439887	        -13.33873738	         -0.93144139	          0.08216606	         -8.76965694	         -0.63258733	         -2.90022204	        -20.81749152	          0.38160755	         43.48357860	         -3.53722048	          0.92499369	         -2.04428302	          0.17047538	          0.05485314	          0.00999999	          0.21901367	          0.30042674	          0.11751061	          0.09822170	          0.23916683	          0.07720924	          0.00999999	          0.03943814	          0.00999999	          0.00999999	          0.52811434	          0.22413039	          0.00999999	          0.00999999	          0.02342087	          0.22432322	          0.03679687	          0.05398450	          0.01766499	          0.36017172	          0.00999999	          0.00999999	          0.18147038	          0.15235958	          0.00999999	
